# Blender 3.5.1
# www.blender.org
mtllib mirrors.mtl
o mirror_2
v 2.745585 0.128527 -0.890460
v 2.745585 0.128527 0.890460
v -1.261485 2.442010 -0.890460
v -1.261485 2.442010 0.890460
vn -0.5000 -0.8660 -0.0000
vt -0.000000 0.500000
vt -0.000000 1.000000
vt 0.333333 0.500000
vt 0.333333 1.000000
s 0
f 3/3/1 1/1/1 2/2/1 4/4/1
o mirror_1
v -1.484100 -2.313483 -0.890460
v -1.484100 -2.313483 0.890460
v -1.484100 2.313483 -0.890460
v -1.484100 2.313483 0.890460
vn 1.0000 -0.0000 -0.0000
vt 0.666667 0.500000
vt 0.666667 1.000000
vt 0.333333 0.500000
vt 0.333333 1.000000
s 0
f 5/5/2 7/7/2 8/8/2 6/6/2
o mirror_3
v 2.745585 -0.128527 -0.890460
v 2.745585 -0.128527 0.890460
v -1.261485 -2.442010 -0.890460
v -1.261485 -2.442010 0.890460
vn -0.5000 0.8660 -0.0000
vt 1.000000 0.500000
vt 1.000000 1.000000
vt 0.666667 0.500000
vt 0.666667 1.000000
s 0
f 9/9/3 11/11/3 12/12/3 10/10/3
